<?xml version="1.0" standalone="no"?>
<!DOCTYPE svg PUBLIC "-//W3C//DTD SVG 20010904//EN"
 "http://www.w3.org/TR/2001/REC-SVG-20010904/DTD/svg10.dtd">
<svg version="1.0" xmlns="http://www.w3.org/2000/svg"
 width="1200.000000pt" height="1208.000000pt" viewBox="0 0 1200.000000 1208.000000"
 preserveAspectRatio="xMidYMid meet">

<g transform="translate(0.000000,1208.000000) scale(0.100000,-0.100000)"
fill="#000000" stroke="none">
<path d="M5775 9115 c-186 -70 -1164 -438 -1823 -686 -179 -67 -228 -88 -207
-89 9 0 281 -58 1809 -387 244 -53 370 -84 390 -98 87 -58 86 -193 -3 -252
-37 -25 -86 -29 -154 -13 -23 6 -577 125 -1232 265 -655 140 -1211 260 -1237
266 l-48 11 0 75 c0 66 2 74 18 69 9 -3 105 -25 212 -50 107 -25 332 -77 500
-116 168 -39 449 -104 625 -145 176 -41 457 -106 625 -145 658 -153 599 -143
630 -115 26 23 26 70 0 92 -11 10 -73 30 -137 45 -65 15 -314 72 -553 128
-239 56 -491 114 -560 130 -69 16 -260 60 -425 99 -747 173 -1043 241 -1053
241 -8 0 -12 -49 -14 -157 l-3 -158 -260 -97 c-463 -175 -444 -167 -452 -196
-14 -58 -1 -65 375 -215 l352 -141 0 -1130 c0 -889 3 -1136 13 -1156 16 -32
66 -39 90 -12 16 17 17 102 19 1133 l3 1115 400 -158 c685 -272 1472 -584
1927 -764 436 -174 436 -174 475 -160 21 8 196 82 388 166 361 157 786 341
1170 507 121 53 301 131 400 174 99 43 481 209 850 368 368 160 676 298 682
308 18 24 16 57 -5 76 -17 15 -144 62 -762 277 -107 37 -458 160 -780 273
-545 191 -871 305 -1691 593 -179 63 -328 114 -330 113 -2 0 -103 -38 -224
-84z"/>
<path d="M3710 6313 l0 -788 158 -69 c140 -61 1555 -682 1982 -870 l165 -72
40 17 c22 9 465 198 985 419 1261 536 1232 524 1231 533 -1 4 -1 369 -1 811
l0 805 -32 -13 c-18 -8 -233 -96 -478 -196 -245 -101 -726 -299 -1070 -440
-344 -141 -642 -263 -662 -270 -36 -13 -42 -12 -200 53 -181 73 -877 359
-1613 662 -264 108 -486 199 -492 202 -10 4 -13 -157 -13 -784z"/>
<path d="M3139 5076 c-56 -20 -96 -53 -126 -104 -35 -59 -36 -114 -4 -307 33
-203 39 -577 16 -957 -22 -358 -18 -530 14 -610 24 -63 100 -153 157 -188 l34
-22 48 34 c60 43 126 140 152 226 36 114 35 214 0 572 -49 487 -48 744 6 1058
16 96 8 153 -29 207 -60 88 -171 126 -268 91z"/>
</g>
</svg>
