<?xml version="1.0" standalone="no"?>
<!DOCTYPE svg PUBLIC "-//W3C//DTD SVG 20010904//EN"
 "http://www.w3.org/TR/2001/REC-SVG-20010904/DTD/svg10.dtd">
<svg version="1.0" xmlns="http://www.w3.org/2000/svg"
 width="640.000000pt" height="640.000000pt" viewBox="0 0 640.000000 640.000000"
 preserveAspectRatio="xMidYMid meet">

<g transform="translate(0.000000,640.000000) scale(0.100000,-0.100000)"
fill="#000000" stroke="none">
<path d="M2715 5450 c-264 -76 -662 -191 -884 -254 -222 -64 -407 -118 -409
-121 -3 -3 -3 -6 -1 -8 10 -8 1766 -507 1784 -507 11 0 81 18 155 40 173 50
607 174 729 208 69 19 89 28 75 33 -10 4 -211 35 -445 68 -411 58 -427 59
-470 44 -56 -20 -114 -6 -157 37 -108 108 44 261 190 192 33 -16 173 -39 603
-97 308 -42 577 -81 597 -86 20 -5 45 -20 55 -33 l19 -23 99 29 c55 15 150 42
210 59 93 26 150 49 122 49 -4 0 -408 115 -897 255 -489 140 -890 255 -892
254 -2 0 -219 -63 -483 -139z"/>
<path d="M3137 5130 c-32 -26 -40 -50 -28 -83 19 -49 95 -71 149 -43 24 12 86
5 577 -65 303 -43 556 -78 563 -79 9 0 12 -86 12 -397 -1 -334 -3 -401 -15
-417 -21 -28 -19 -78 5 -104 25 -27 25 -27 -10 -217 -16 -88 -30 -163 -30
-167 0 -5 40 -8 89 -8 50 0 92 3 94 8 2 4 -11 86 -28 182 l-32 175 25 27 c21
23 23 32 17 65 -4 21 -10 237 -12 479 -3 403 -5 443 -21 456 -11 10 -132 30
-362 62 -725 98 -842 116 -863 131 -31 22 -99 19 -130 -5z"/>
<path d="M2120 4475 c0 -218 4 -323 11 -338 8 -14 11 -91 10 -236 -2 -246 12
-370 60 -531 76 -257 225 -488 412 -636 98 -77 251 -156 362 -185 181 -48 403
-32 578 41 144 60 329 203 425 330 162 213 253 452 283 737 7 70 10 186 7 289
-4 132 -2 176 8 195 10 19 13 94 14 331 0 169 -3 309 -7 311 -5 2 -170 -43
-368 -100 -198 -57 -439 -126 -536 -153 l-176 -50 -520 149 c-286 81 -529 152
-541 155 l-22 7 0 -316z m525 -425 c595 -47 525 -46 988 -10 230 18 420 30
423 27 13 -12 16 -259 5 -373 -27 -292 -132 -540 -306 -719 -131 -134 -264
-210 -421 -241 -176 -33 -344 -1 -512 97 -77 46 -229 198 -287 287 -93 145
-153 307 -180 487 -15 101 -21 445 -8 458 9 10 18 9 298 -13z"/>
<path d="M2050 2480 c-362 -77 -667 -357 -774 -710 -41 -139 -46 -196 -46
-598 l0 -382 1973 2 1972 3 0 400 c0 447 -3 475 -72 649 -119 302 -367 526
-688 623 -86 25 -101 27 -356 31 l-266 4 -89 -71 c-113 -91 -259 -164 -374
-187 -161 -32 -357 -4 -527 76 -83 39 -216 125 -248 160 -17 19 -32 20 -219
19 -154 0 -221 -5 -286 -19z"/>
</g>
</svg>
